<svg id="bee" xmlns="http://www.w3.org/2000/svg" xmlns:xlink="http://www.w3.org/1999/xlink" viewBox="0 0 213.97 217.6">
  <defs>
    <style>
      #bee:hover {cursor: pointer; }
      #bee:hover {transform: scale(0.8); }

      .cls-2 {
        animation-duration: 1s;
        animation-iteration-count: infinite;
        animation-timing-function: ease-in-out;
        animation-direction: alternate;
      }

      .cls-2 {
        fill: #cdebd2;
        animation-name: glow-red;
        animation-delay: .5s;
        animation-duration: 1.25s;
      }

      @keyframes glow-red {
        0% { fill: #cdebd2; }
        100% { fill: #EECBB9; }
      }

      .cls-2 {
        transform-origin: center;
        transition: all 0.5s ease;
      }

      .cls-1,.cls-5{
        fill:none;
        stroke-linecap:round;
        stroke-linejoin:round;
      }

      .cls-1,.cls-3,.cls-5{stroke:#000;}

      .cls-1,.cls-3{stroke-width:15px;}

      .cls-2{fill:#abdadf;}

      .cls-3{stroke-miterlimit:10;}

      .cls-4{clip-path:url(#clip-path);}

      .cls-5{stroke-width:10px;}
    </style>
    <script>
      let theBee = document.querySelector("#bee");

      function logMyId() {
        console.log("clicked on the object tag:", this.id);
      }

      theBee.addEventListener("click", logMyId);
    </script>

    <clipPath id="clip-path" transform="translate(-1.27 -0.9)">
      <path class="cls-1" d="M109.25,107s5.4,16,14.49,36.38c-31.48,31.89-83.56,69.54-104,53.49h0C3.64,176.41,41.48,124.16,73.41,92.7c20,8.9,35.68,14.18,35.68,14.18"/>
    </clipPath>

  </defs>

  <path id="color" class="cls-2" d="M186.4,118.58c-5.92,26.58-19.34,59.51-66.61,46.58-32.48-8.89-63,49.2-101.14-2.7C1.39,139,30.5,36.8,104.38,42.64,159.86,47,201.66,50.2,186.4,118.58Z" transform="translate(-1.27 -0.9)"/>

  <path id="wingLeft" class="cls-1" d="M97.63,79.7c6.69,15.88,10.55,28.12,10.55,28.12s-13.19-4.18-30-11.34C41.07,80.63-13.61,50.17,18.47,18.1,51.09-14.53,82,42.55,97.63,79.7Z" transform="translate(-1.27 -0.9)"/>

  <path id="wingRight" class="cls-1" d="M198,197.67c-31.92,31.91-62.22-22-78.14-59.16C112.58,121.45,108.32,108,108.32,108s12.52,4,28.67,10.78C174.14,134.41,230.49,165.21,198,197.67Z" transform="translate(-1.27 -0.9)"/>

  <path id="body" class="cls-3" d="M109.09,106.88S104.2,92.33,95.88,73.41A56.66,56.66,0,0,1,102,69.62c27.64-14.36,41.74,2,42.28,2.68v0c.6.49,17.06,14.6,2.69,42.27a57.47,57.47,0,0,1-3.64,6c-19.24-8.49-34.13-13.5-34.13-13.5" transform="translate(-1.27 -0.9)"/><g id="tail"><g class="cls-4">

  <path class="cls-1" d="M14.12,139.37s-5.66,49,71.15,71.63" transform="translate(-1.27 -0.9)"/>

  <path class="cls-1" d="M32,121.45s-5.65,49,71.15,71.64" transform="translate(-1.27 -0.9)"/>

  <path class="cls-1" d="M52.36,101.13s-5.66,49,71.15,71.63" transform="translate(-1.27 -0.9)"/>

  <path class="cls-1" d="M73,80.46s-5.65,49,71.15,71.64" transform="translate(-1.27 -0.9)"/></g>

  <path class="cls-1" d="M109.25,107s5.4,16,14.49,36.38c-31.48,31.89-83.56,69.54-104,53.49h0C3.64,176.41,41.48,124.16,73.41,92.7c20,8.9,35.68,14.18,35.68,14.18" transform="translate(-1.27 -0.9)"/></g><g id="antennaeRight"><line class="cls-1" x1="139.5" y1="35.56" x2="134.82" y2="62.24"/><circle class="cls-5" cx="143.44" cy="22.9" r="10.54"/></g><g id="antennaeRight-2" data-name="antennaeRight"><line class="cls-1" x1="178.94" y1="75" x2="152.26" y2="79.68"/><circle class="cls-5" cx="191.6" cy="71.06" r="10.54"/></g></svg>
