<svg id="rain" xmlns="http://www.w3.org/2000/svg" viewBox="0 0 212.86 176.33">
  <defs>
    <style>

      #rain:hover {cursor: pointer; }
      #rain:hover {transform: scale(0.8); }

      .cls-1 {
        animation-duration: 1s;
        animation-iteration-count: infinite;
        animation-timing-function: ease-in-out;
        animation-direction: alternate;
      }

      .cls-1 {
        fill: #ABDADF;
	      animation-name: glow-green;
	      animation-delay: .5s;
	      animation-duration: 1.25s;
      }

      @keyframes glow-green {
	      0% { fill: #ABDADF; }
	      100% { fill: #CDEBD2; }
      }

      .cls-1 {
        transform-origin: center;
        transition: all 0.5s ease;
      }

      .cls-1 {
        fill: #abdadf;
      }

      .cls-2 {
        fill:none;
        stroke:#000;
        stroke-linecap:round;
        stroke-miterlimit:10;
        stroke-width:15px;
      }

    </style>
  </defs>
  <path id="color" class="cls-1" d="M197.68,112.69c-5.85,26.22-19.09,58.71-65.72,45.95-32.06-8.76-62.14,48.55-99.8-2.66-17-23.15,11.7-124,84.59-118.22C171.49,42.09,212.73,45.22,197.68,112.69Z" transform="translate(-1.98 -19.98)"/>
  <path id="rain-2" data-name="rain" class="cls-2" d="M9.68,115.15c-1.09-11.59,1.44-28.58,25.26-29.71,0,0-4.63-25,15.51-38.86s43.62.48,43.62.48,28.75-29.83,60.48-15.86c36.39,16,30.12,50.38,30.12,50.38s22.67-2.54,22.67,21.76c0,13.47-10.51,18.91-15.19,20.67a11.42,11.42,0,0,1-4,.72L21.43,125.81A11.76,11.76,0,0,1,9.68,115.15Zm119.69,73.66,13.51-19.89M56.67,188.81l13.51-19.89M93,188.81l13.51-19.89m31.18-26.33L124.2,162.48m-72.7,0L65,142.59m36.35,0L87.85,162.48" transform="translate(-1.98 -19.98)"/>
</svg>
