<svg id="waterfall" xmlns="http://www.w3.org/2000/svg" viewBox="0 0 186.67 213.83">
  <defs>
    <style>

      #waterfall:hover {cursor: pointer; }
      #waterfall:hover {transform: scale(0.8); }

      .cls-1 {
        animation-duration: 1s;
        animation-iteration-count: infinite;
        animation-timing-function: ease-in-out;
        animation-direction: alternate;
      }

      .cls-1 {
        fill: #cdebd2;
        animation-name: glow-red;
        animation-delay: .5s;
        animation-duration: 1.25s;
      }

      @keyframes glow-red {
        0% { fill: #cdebd2; }
        100% { fill: #EECBB9; }
      }

      .cls-1 {
        transform-origin: center;
        transition: all 0.5s ease;
      }
      .cls-1{fill:#abdadf;}

      .cls-2{
        fill:none;
        stroke:#000;
        stroke-linecap:round;
        stroke-miterlimit:10;
        stroke-width:15px;}
      </style>
    </defs>

    <path id="color" class="cls-1" d="M181.13,125c-5.3,23.76-17.29,53.2-59.55,41.64-29-7.94-56.3,44-90.43-2.41-15.43-21,10.6-112.34,76.65-107.12C157.4,61.06,194.77,63.89,181.13,125Z" transform="translate(-13.9 -1.03)"/>

    <path id="waterfall-2" data-name="waterfall" class="cls-2" d="M79.76,135.74c-4.86-66.87,32.83-70.51,32.83-70.51,7.29-62.62,58.35-56.54,58.35-56.54m3.78,20.8s-34.78-3.78-34.78,41.21m-7.69,15.19s-27,0-27,57.89m87.78-89.56s-29.14,1.27-27.87,35.9c0,0-29.57,2.95-29.57,64.19M68.49,91s-33.37-3.8-46,36.74m124.3,56.61S183.6,171,160.33,137.5m-96.06-4.84s-3,28.94,29.94,26.94c0,0,9.2,25.68,32.43,12.48m-11,35.22c34.43,1.2,63.41-13.64,69.91-38.4,3.57-13.62-.24-28-9.48-40.74m-148,32.3c10.6,18.95,33,35.49,61.37,42.94M68.23,89.73c-23.05,4.81-40.62,17.81-45.51,36.42a41.33,41.33,0,0,0-.87,16.49M67.26,109.7c-19.76-1.64-48.7,39.26-1,63.88" transform="translate(-13.9 -1.03)"/>
  </svg>
