<svg id="wind" xmlns="http://www.w3.org/2000/svg" viewBox="0 0 214.13 165.81">
  <defs>
    <style>
      #wind:hover {cursor: pointer; }
      #wind:hover {transform: scale(0.8);}

      .cls-1 {
        animation-duration: 1s;
        animation-iteration-count: infinite;
        animation-timing-function: ease-in-out;
        animation-direction: alternate;
      }

      .cls-1 {
        fill: #ABDADF;
	      animation-name: glow-green;
	      animation-delay: .5s;
	      animation-duration: 1.25s;
      }

      @keyframes glow-green {
	      0% { fill: #ABDADF; }
	      100% { fill: #CDEBD2; }
      }

      .cls-1 {
        transform-origin: center;
        transition: all 0.5s ease;
      }

      .cls-1{fill:#cdebd2;}

      .cls-2{
        fill:none;
        stroke:#000;
        stroke-linecap:round;
        stroke-miterlimit:10;
        stroke-width:15px;
      }
    </style>
    <script>
      let theWind = document.querySelector("#wind");

      function logMyId() {
        console.log("clicked on the object tag:", this.id);
      }

      theWind.addEventListener("click", logMyId);
    </script>
  </defs>

  <path id="color" class="cls-1" d="M1.69,103.06c-1.88,26.75-.81,82.09,91.86,77s116.72-57.16,114.18-91.44-48.17-69.78-87.52-44.39S63.08,48.05,41.5,53.13,2.52,91.24,1.69,103.06Z" transform="translate(-0.68 -24.34)"/>

  <path id="wind-2" data-name="wind" class="cls-2" d="M120.93,49.22C131.48,23.5,149.58,32.38,155.22,38c10.55,10.55,11.87,46.15-64,58S8.18,66.36,8.18,66.36m0,37.59c2,.85,30.51,37.44,114.73,7.91m84.4-51.43s-19.78-4.62-31.65,17.8a54.72,54.72,0,0,1-34.29,27m8.57,50.12c-13.61,7.77,7.26,41.54,42.2,20.44,28.49-17.21,4-69.24-29.67-52.09C59.45,176.25,8.18,134.28,8.18,134.28M179,159.33c5.94-15.16-11.86-16.48-11.86-16.48M24,166.16s46.87,19.24,96.57-1.78" transform="translate(-0.68 -24.34)"/>
</svg>
